<mxfile host="65bd71144e">
    <diagram id="EZwwttg-afULxaRD5fOu" name="Page-1">
        <mxGraphModel dx="446" dy="419" grid="0" gridSize="10" guides="0" tooltips="1" connect="0" arrows="0" fold="1" page="0" pageScale="1" pageWidth="850" pageHeight="1100" math="0" shadow="0">
            <root>
                <mxCell id="0"/>
                <mxCell id="1" parent="0"/>
                <mxCell id="2" value="START" style="whiteSpace=wrap;html=1;aspect=fixed;" parent="1" vertex="1">
                    <mxGeometry x="390" y="20" width="70" height="70" as="geometry"/>
                </mxCell>
                <mxCell id="5" value="" style="endArrow=classic;html=1;exitX=0.5;exitY=1;exitDx=0;exitDy=0;" parent="1" source="2" edge="1">
                    <mxGeometry width="50" height="50" relative="1" as="geometry">
                        <mxPoint x="410" y="220" as="sourcePoint"/>
                        <mxPoint x="425" y="130" as="targetPoint"/>
                    </mxGeometry>
                </mxCell>
                <mxCell id="6" value="Is user Aunthenticate?" style="rounded=0;whiteSpace=wrap;html=1;" parent="1" vertex="1">
                    <mxGeometry x="368" y="130" width="115" height="40" as="geometry"/>
                </mxCell>
                <mxCell id="7" value="" style="endArrow=classic;html=1;rounded=0;edgeStyle=orthogonalEdgeStyle;" parent="1" edge="1">
                    <mxGeometry width="50" height="50" relative="1" as="geometry">
                        <mxPoint x="360" y="150" as="sourcePoint"/>
                        <mxPoint x="290" y="200" as="targetPoint"/>
                    </mxGeometry>
                </mxCell>
                <mxCell id="35" value="YES" style="edgeLabel;html=1;align=center;verticalAlign=middle;resizable=0;points=[];" parent="7" vertex="1" connectable="0">
                    <mxGeometry x="0.1389" y="1" relative="1" as="geometry">
                        <mxPoint as="offset"/>
                    </mxGeometry>
                </mxCell>
                <mxCell id="11" value="Is Internet Connection Present ?" style="rounded=0;whiteSpace=wrap;html=1;" parent="1" vertex="1">
                    <mxGeometry x="230" y="200" width="130" height="30" as="geometry"/>
                </mxCell>
                <mxCell id="13" value="" style="edgeStyle=segmentEdgeStyle;endArrow=classic;html=1;curved=0;rounded=0;endSize=8;startSize=8;targetPerimeterSpacing=0;startArrow=none;" parent="1" edge="1">
                    <mxGeometry width="100" relative="1" as="geometry">
                        <mxPoint x="230" y="270" as="sourcePoint"/>
                        <mxPoint x="220" y="310" as="targetPoint"/>
                        <Array as="points">
                            <mxPoint x="220" y="270"/>
                        </Array>
                    </mxGeometry>
                </mxCell>
                <mxCell id="14" value="" style="edgeStyle=segmentEdgeStyle;endArrow=none;html=1;curved=0;rounded=0;endSize=8;startSize=8;sourcePerimeterSpacing=0;exitX=0.5;exitY=1;exitDx=0;exitDy=0;" parent="1" source="11" edge="1">
                    <mxGeometry width="100" relative="1" as="geometry">
                        <mxPoint x="295" y="230" as="sourcePoint"/>
                        <mxPoint x="260" y="269.9473684210526" as="targetPoint"/>
                        <Array as="points">
                            <mxPoint x="295" y="270"/>
                        </Array>
                    </mxGeometry>
                </mxCell>
                <mxCell id="16" value="" style="edgeStyle=segmentEdgeStyle;endArrow=classic;html=1;curved=0;rounded=0;endSize=8;startSize=8;sourcePerimeterSpacing=0;targetPerimeterSpacing=0;" parent="1" edge="1">
                    <mxGeometry width="100" relative="1" as="geometry">
                        <mxPoint x="290" y="270" as="sourcePoint"/>
                        <mxPoint x="400" y="310" as="targetPoint"/>
                        <Array as="points">
                            <mxPoint x="400" y="270"/>
                        </Array>
                    </mxGeometry>
                </mxCell>
                <mxCell id="17" value="&lt;span style=&quot;background-color: rgb(0, 0, 0);&quot;&gt;No&lt;/span&gt;" style="text;html=1;strokeColor=none;fillColor=none;align=center;verticalAlign=middle;whiteSpace=wrap;rounded=0;" parent="1" vertex="1">
                    <mxGeometry x="365" y="256" width="60" height="30" as="geometry"/>
                </mxCell>
                <mxCell id="18" value="Fetch blogs from Supbase" style="rounded=0;whiteSpace=wrap;html=1;labelBackgroundColor=#000000;" parent="1" vertex="1">
                    <mxGeometry x="151" y="310" width="120" height="60" as="geometry"/>
                </mxCell>
                <mxCell id="19" value="Fetch blogs from Local Storage" style="rounded=0;whiteSpace=wrap;html=1;labelBackgroundColor=#000000;" parent="1" vertex="1">
                    <mxGeometry x="340" y="310" width="120" height="60" as="geometry"/>
                </mxCell>
                <mxCell id="21" value="" style="edgeStyle=segmentEdgeStyle;endArrow=classic;html=1;curved=0;rounded=0;endSize=8;startSize=8;sourcePerimeterSpacing=0;targetPerimeterSpacing=0;" parent="1" source="18" edge="1">
                    <mxGeometry width="100" relative="1" as="geometry">
                        <mxPoint x="200" y="400" as="sourcePoint"/>
                        <mxPoint x="300" y="470" as="targetPoint"/>
                        <Array as="points">
                            <mxPoint x="200" y="420"/>
                            <mxPoint x="300" y="420"/>
                        </Array>
                    </mxGeometry>
                </mxCell>
                <mxCell id="23" value="" style="edgeStyle=segmentEdgeStyle;endArrow=none;html=1;curved=0;rounded=0;endSize=8;startSize=8;sourcePerimeterSpacing=0;targetPerimeterSpacing=0;strokeColor=default;endFill=0;" parent="1" edge="1">
                    <mxGeometry width="100" relative="1" as="geometry">
                        <mxPoint x="400" y="370" as="sourcePoint"/>
                        <mxPoint x="300" y="420" as="targetPoint"/>
                        <Array as="points">
                            <mxPoint x="400" y="420"/>
                        </Array>
                    </mxGeometry>
                </mxCell>
                <mxCell id="24" value="OR" style="edgeLabel;html=1;align=center;verticalAlign=middle;resizable=0;points=[];" parent="23" vertex="1" connectable="0">
                    <mxGeometry x="0.8889" relative="1" as="geometry">
                        <mxPoint x="-8" as="offset"/>
                    </mxGeometry>
                </mxCell>
                <mxCell id="28" value="YES" style="text;html=1;align=center;verticalAlign=middle;resizable=0;points=[];autosize=1;strokeColor=none;fillColor=none;" parent="1" vertex="1">
                    <mxGeometry x="220" y="256" width="50" height="30" as="geometry"/>
                </mxCell>
                <mxCell id="29" value="GO TO HOME PAGE" style="rounded=0;whiteSpace=wrap;html=1;labelBackgroundColor=#000000;" parent="1" vertex="1">
                    <mxGeometry x="235" y="470" width="125" height="30" as="geometry"/>
                </mxCell>
                <mxCell id="32" value="" style="edgeStyle=segmentEdgeStyle;endArrow=classic;html=1;curved=0;rounded=0;endSize=8;startSize=8;sourcePerimeterSpacing=0;targetPerimeterSpacing=0;exitX=1;exitY=0.5;exitDx=0;exitDy=0;" parent="1" source="6" edge="1">
                    <mxGeometry width="100" relative="1" as="geometry">
                        <mxPoint x="440" y="130" as="sourcePoint"/>
                        <mxPoint x="680" y="200" as="targetPoint"/>
                        <Array as="points">
                            <mxPoint x="680" y="150"/>
                            <mxPoint x="680" y="190"/>
                        </Array>
                    </mxGeometry>
                </mxCell>
                <mxCell id="34" value="NO" style="edgeLabel;html=1;align=center;verticalAlign=middle;resizable=0;points=[];" parent="32" vertex="1" connectable="0">
                    <mxGeometry x="-0.0391" relative="1" as="geometry">
                        <mxPoint as="offset"/>
                    </mxGeometry>
                </mxCell>
                <mxCell id="36" value="DISPLAY&amp;nbsp; LOGIN PAGE" style="rounded=0;whiteSpace=wrap;html=1;labelBackgroundColor=none;" parent="1" vertex="1">
                    <mxGeometry x="630" y="200" width="110" height="30" as="geometry"/>
                </mxCell>
                <mxCell id="37" value="" style="edgeStyle=segmentEdgeStyle;endArrow=classic;html=1;curved=0;rounded=0;endSize=8;startSize=8;sourcePerimeterSpacing=0;targetPerimeterSpacing=0;exitX=0.457;exitY=1.025;exitDx=0;exitDy=0;exitPerimeter=0;" parent="1" source="36" edge="1">
                    <mxGeometry width="100" relative="1" as="geometry">
                        <mxPoint x="630" y="220" as="sourcePoint"/>
                        <mxPoint x="680" y="290" as="targetPoint"/>
                        <Array as="points">
                            <mxPoint x="680" y="260"/>
                            <mxPoint x="680" y="260"/>
                        </Array>
                    </mxGeometry>
                </mxCell>
                <mxCell id="39" value="DOES USER HAve AN ACCOUNT?" style="rounded=0;whiteSpace=wrap;html=1;labelBackgroundColor=none;" parent="1" vertex="1">
                    <mxGeometry x="620" y="290" width="120" height="60" as="geometry"/>
                </mxCell>
                <mxCell id="40" value="" style="edgeStyle=segmentEdgeStyle;endArrow=classic;html=1;curved=0;rounded=0;endSize=8;startSize=8;sourcePerimeterSpacing=0;targetPerimeterSpacing=0;entryX=1;entryY=0.5;entryDx=0;entryDy=0;exitX=0.5;exitY=1;exitDx=0;exitDy=0;" parent="1" source="39" target="29" edge="1">
                    <mxGeometry width="100" relative="1" as="geometry">
                        <mxPoint x="630" y="340" as="sourcePoint"/>
                        <mxPoint x="730" y="380" as="targetPoint"/>
                        <Array as="points">
                            <mxPoint x="680" y="420"/>
                            <mxPoint x="510" y="420"/>
                            <mxPoint x="510" y="485"/>
                        </Array>
                    </mxGeometry>
                </mxCell>
                <mxCell id="41" value="YES" style="edgeLabel;html=1;align=center;verticalAlign=middle;resizable=0;points=[];" parent="40" vertex="1" connectable="0">
                    <mxGeometry x="-0.2182" y="2" relative="1" as="geometry">
                        <mxPoint as="offset"/>
                    </mxGeometry>
                </mxCell>
                <mxCell id="43" value="" style="edgeStyle=segmentEdgeStyle;endArrow=classic;html=1;curved=0;rounded=0;endSize=8;startSize=8;sourcePerimeterSpacing=0;targetPerimeterSpacing=0;" parent="1" edge="1">
                    <mxGeometry width="100" relative="1" as="geometry">
                        <mxPoint x="680" y="420" as="sourcePoint"/>
                        <mxPoint x="760" y="510" as="targetPoint"/>
                        <Array as="points">
                            <mxPoint x="760" y="420"/>
                        </Array>
                    </mxGeometry>
                </mxCell>
                <mxCell id="45" value="NO" style="edgeLabel;html=1;align=center;verticalAlign=middle;resizable=0;points=[];" parent="43" vertex="1" connectable="0">
                    <mxGeometry x="-0.1642" y="-1" relative="1" as="geometry">
                        <mxPoint as="offset"/>
                    </mxGeometry>
                </mxCell>
                <mxCell id="44" value="DISPLAY SIGN UP PAGE" style="rounded=0;whiteSpace=wrap;html=1;labelBackgroundColor=none;" parent="1" vertex="1">
                    <mxGeometry x="700" y="510" width="120" height="60" as="geometry"/>
                </mxCell>
            </root>
        </mxGraphModel>
    </diagram>
</mxfile>